<!-- icon666.com - MILLIONS vector ICONS FREE --><svg viewBox="-51 0 512 512.01495" xmlns="http://www.w3.org/2000/svg"><path d="m394.109375 249.089844c-4.738281 37.339844-12.589844 74.21875-23.464844 110.25-5.992187 20.125-13.464843 39.777344-22.359375 58.792968-16.894531 34.136719-92.757812 76.800782-126.378906 76.800782h-17.066406v-477.867188h17.066406c203.519531.34375 184.660156 137.984375 172.203125 232.023438zm0 0" fill="#cbd1d7"></path><path d="m221.90625 17.066406v477.78125c.023438 2.472656-1.027344 4.828125-2.878906 6.464844-1.847656 1.636719-4.316406 2.390625-6.761719 2.070312-22.691406-4.320312-43.191406-16.347656-58.027344-34.046874-2.433593-2.710938-5.394531-4.886719-8.703125-6.402344-14.507812-7.082032-54.019531-27.648438-65.539062-48.296875-12.796875-22.957031-12.03125-57.257813-11.773438-63.746094.070313-.335937.097656-.679687.085938-1.023437-5.773438.101562-11.53125-.671876-17.070313-2.304688-12.1875-2.539062-20.898437-13.316406-20.820312-25.769531-.03125-10.191407-2.242188-20.257813-6.484375-29.523438-1.792969-4.097656-4.265625-8.789062-7.082032-14.167969-15.277343-26.964843-7.511718-47.445312 7.765626-54.527343.277343-.128907.5625-.242188.851562-.339844 2.03125-.855469 4.148438-1.484375 6.316406-1.878906 6.605469-1.027344 13.363282-.109375 19.453125 2.644531.085938 0 .171875.085938.257813.085938-3.667969-6.058594-58.539063-210.347657 161.707031-215.550782 2.289063-.03125 4.492187.855469 6.125 2.457032 1.636719 1.601562 2.5625 3.789062 2.578125 6.074218zm0 0" fill="#a38976"></path><path d="m324.308594 238.933594c0 18.851562-15.285156 34.132812-34.136719 34.132812s-34.132813-15.28125-34.132813-34.132812c0-18.851563 15.28125-34.132813 34.132813-34.132813s34.136719 15.28125 34.136719 34.132813zm0 0" fill="#4ab1d9"></path><path d="m221.90625 384h51.199219c9.425781 0 17.066406 7.640625 17.066406 17.066406 0 9.425782-7.640625 17.066406-17.066406 17.066406h-51.199219zm0 0" fill="#fff"></path><path d="m187.773438 247.46875s-21.007813 34.132812-46.933594 34.132812c-25.925782 0-46.933594-34.132812-46.933594-34.132812s21.007812-34.132812 46.933594-34.132812c25.925781 0 46.933594 34.132812 46.933594 34.132812zm0 0" fill="#fff"></path><path d="m399.996094 145.066406h-178.089844v-128c134.316406.257813 171.777344 60.246094 178.089844 128zm0 0" fill="#74d7f1"></path><g fill="#373737"><path d="m86.636719 242.996094c-1.6875 2.742187-1.6875 6.199218 0 8.945312.964843 1.558594 23.894531 38.191406 54.203125 38.191406 30.3125 0 53.238281-36.632812 54.203125-38.191406 1.6875-2.746094 1.6875-6.203125 0-8.945312-.964844-1.5625-23.867188-38.195313-54.203125-38.195313-30.335938 0-53.238282 36.632813-54.203125 38.195313zm54.203125-21.128906c14.703125 0 29.378906 15.761718 36.617187 25.601562-7.238281 9.839844-21.914062 25.597656-36.617187 25.597656s-29.378906-15.757812-36.617188-25.597656c7.238282-9.839844 21.914063-25.601562 36.617188-25.601562zm0 0"></path><path d="m228.085938 8.636719c-.742188-1.378907-1.671876-2.648438-2.765626-3.769531-3.316406-3.175782-7.75-4.9218755-12.339843-4.867188-17.640625.316406-35.21875 2.230469-52.511719 5.71875-3.117188.476562-5.71875 2.628906-6.765625 5.601562-1.046875 2.96875-.371094 6.277344 1.757813 8.601563 2.132812 2.320313 5.367187 3.28125 8.417968 2.496094 16.300782-3.277344 32.871094-5.050781 49.496094-5.308594v331.445313c-5.34375-1.707032-8.535156-4.832032-8.535156-7.21875 0-4.714844-3.820313-8.535157-8.53125-8.535157-4.714844 0-8.535156-3.820312-8.535156-8.53125 0-4.714843-3.820313-8.535156-8.535157-8.535156-4.710937 0-8.53125 3.820313-8.53125 8.535156.015625 11.40625 7.558594 21.429688 18.515625 24.601563 4.625 9.449218 13.710938 15.921875 24.152344 17.210937v19.539063c-2.730469-1.035156-5.617188-1.582032-8.535156-1.621094-19.097656 0-44.5625 16.605469-47.402344 18.5-3.921875 2.617188-4.980469 7.917969-2.363281 11.835938 2.613281 3.921874 7.914062 4.980468 11.835937 2.363281 6.527344-4.351563 26.09375-15.632813 37.929688-15.632813 3.152344.5 6.105468 1.859375 8.535156 3.933594v89.933594c-20.621094-4.027344-39.226562-15.03125-52.6875-31.164063-3.164062-3.621093-7.066406-6.53125-11.441406-8.53125-31.675782-15.464843-54.785156-32.214843-61.800782-44.792969-12.738281-22.894531-10.648437-59.734374-10.621093-60.074218 0-.09375 0-.171875 0-.265625s.015625-.144531.015625-.238281v-25.597657c0-4.714843-3.820313-8.535156-8.53125-8.535156-4.714844 0-8.535156 3.820313-8.535156 8.535156v16.460938c-6-.496094-11.671876-2.941407-16.152344-6.964844-3.074219-3.167969-4.75-7.4375-4.644532-11.851563.019532-11.417968-2.457031-22.703124-7.261718-33.058593-1.875-4.265625-4.410156-9.105469-7.449219-14.910157-8.796875-15.582031-9.539063-29.863281-1.980469-38.234374 5.980469-6.015626 14.957032-7.914063 22.863282-4.839844 2.578124 6.050781 4.699218 12.285156 6.339843 18.652344.945313 3.808593 4.363281 6.480468 8.285157 6.476562.695312 0 1.386718-.085938 2.066406-.246094 2.195312-.542968 4.089844-1.941406 5.257812-3.878906 1.167969-1.941406 1.515625-4.265625.96875-6.464844-2.210937-8.550781-5.171875-16.894531-8.839844-24.933594l-.050781-.058593v-.078125c-2.910156-6.894532-17.972656-68.417969 3.761719-121.25 12.589844-30.761719 37.34375-54.945313 68.386719-66.816406 2.855469-1.136719 4.878906-3.71875 5.296875-6.765626.417968-3.042968-.832032-6.078124-3.273438-7.941406-2.441406-1.867187-5.699218-2.273437-8.523437-1.070312-38.957031 14.90625-68.980469 46.78125-81.527344 86.5625-10.515625 35.558594-11.867187 73.199218-3.925781 109.421875-11.191406-.808594-22.144532 3.527343-29.746094 11.777343-12.726562 14.089844-12.800781 35.839844-.351562 57.828126 2.714843 5.191406 5.121093 9.710937 6.828124 13.613281 3.78125 8.082031 5.765626 16.886719 5.816407 25.8125-.1875 8.988281 3.226562 17.683593 9.480469 24.140625 7.648437 7.3125 17.648437 11.667968 28.214843 12.289062-.441406 21.007813 3.996094 41.828125 12.960938 60.832032 12.03125 21.574218 48.535156 41.730468 69.332031 51.867187 2.277344 1.011719 4.3125 2.496094 5.972656 4.351563 16.183594 19.242187 38.546875 32.269531 63.265625 36.855468 7.019531 1 13.902344-2.539062 17.179688-8.824218 38.398437-4.46875 110.34375-46.121094 127.605469-81.117188 9.175781-19.402344 16.8125-39.492188 22.835937-60.089844 11.011719-36.496094 18.980469-73.839844 23.835937-111.652344l.136719-1.074218c8.0625-61.097656 18.089844-137.132813-26.804687-188.425782-29.703125-33.945312-78.15625-50.953124-147.847656-52.027343zm162.3125 127.898437h-159.957032v-110.832031c62.410156 1.390625 107.015625 16.964844 132.648438 46.207031 15.25 18.394532 24.746094 40.871094 27.308594 64.625zm-159.957032 256h42.664063c4.714843 0 8.535156 3.820313 8.535156 8.53125 0 4.714844-3.820313 8.535156-8.535156 8.535156h-42.664063zm155.382813-145.671875-.144531 1.074219c-4.726563 36.871094-12.496094 73.289062-23.230469 108.875-5.777344 19.726562-13.085938 38.964844-21.859375 57.550781-14.0625 28.519531-76.128906 65.261719-110.148438 71.183594v-58.878906h42.664063c14.140625 0 25.601562-11.460938 25.601562-25.601563 0-14.136718-11.460937-25.597656-25.601562-25.597656h-42.664063v-221.867188h161.695313c.804687 31.214844-1.308594 62.4375-6.3125 93.261719zm0 0"></path><path d="m290.171875 196.269531c-16.519531.019531-31.542969 9.574219-38.566406 24.527344-7.023438 14.953125-4.78125 32.621094 5.753906 45.347656 10.535156 12.722657 27.46875 18.226563 43.472656 14.117188 4.566407-1.179688 7.3125-5.835938 6.136719-10.402344-1.179688-4.566406-5.835938-7.3125-10.402344-6.136719-11.179687 2.890625-22.90625-2.058594-28.632812-12.082031-5.726563-10.023437-4.039063-22.640625 4.125-30.804687 8.164062-8.164063 20.777344-9.851563 30.800781-4.125 10.023437 5.726562 14.976563 17.457031 12.085937 28.632812-.761718 2.953125.109376 6.089844 2.289063 8.226562 2.175781 2.136719 5.328125 2.949219 8.265625 2.132813 2.941406-.816406 5.222656-3.140625 5.984375-6.09375 3.28125-12.777344.480469-26.351563-7.597656-36.78125s-20.523438-16.542969-33.714844-16.558594zm0 0"></path><path d="m264.574219 332.800781h-8.535157c-4.710937 0-8.53125 3.820313-8.53125 8.535157 0 4.710937 3.820313 8.53125 8.53125 8.53125h8.535157c4.710937 0 8.53125-3.820313 8.53125-8.53125 0-4.714844-3.820313-8.535157-8.53125-8.535157zm0 0"></path><path d="m252.625 89.507812-4.84375 19.363282c-1.140625 4.570312 1.640625 9.199218 6.210938 10.339844.671874.167968 1.359374.253906 2.046874.257812 3.914063-.003906 7.324219-2.671875 8.269532-6.46875l4.839844-19.34375c.457031-1.84375 1.894531-3.28125 3.738281-3.738281l10.820312-2.707031c4.539063-1.171876 7.28125-5.785157 6.144531-10.335938-1.140624-4.546875-5.738281-7.324219-10.292968-6.21875l-10.820313 2.730469c-7.9375 1.984375-14.132812 8.183593-16.113281 16.121093zm0 0"></path><path d="m315.773438 119.46875h15.054687c9.703125.027344 18.578125-5.457031 22.894531-14.148438l3.820313-7.679687c2.109375-4.21875.394531-9.347656-3.820313-11.453125-4.21875-2.105469-9.347656-.394531-11.453125 3.824219l-3.8125 7.628906c-1.433593 2.898437-4.394531 4.730469-7.628906 4.71875h-15.054687c-4.710938 0-8.535157 3.820313-8.535157 8.53125 0 4.714844 3.824219 8.535156 8.535157 8.535156zm0 0"></path><path d="m256.039062 59.734375h8.535157c4.710937 0 8.53125-3.820313 8.53125-8.53125 0-4.714844-3.820313-8.535156-8.53125-8.535156h-8.535157c-4.710937 0-8.53125 3.820312-8.53125 8.535156 0 4.710937 3.820313 8.53125 8.53125 8.53125zm0 0"></path><path d="m315.773438 76.800781h8.535156c4.710937 0 8.53125-3.820312 8.53125-8.53125 0-4.714843-3.820313-8.535156-8.53125-8.535156h-8.535156c-4.710938 0-8.535157 3.820313-8.535157 8.535156 0 4.710938 3.824219 8.53125 8.535157 8.53125zm0 0"></path></g></svg>